<svg width="25" height="21" viewBox="0 0 25 21" fill="none" xmlns="http://www.w3.org/2000/svg">
<path d="M3.55556 10.5716H1L12.5 1L24 10.5716H21.4444M3.55556 10.5716V18.0162C3.55556 18.5803 3.8248 19.1213 4.30406 19.5202C4.78332 19.9191 5.43334 20.1432 6.11111 20.1432H18.8889C19.5667 20.1432 20.2167 19.9191 20.6959 19.5202C21.1752 19.1213 21.4444 18.5803 21.4444 18.0162V10.5716" stroke="#6F6F6F" stroke-width="1.6" stroke-linecap="round" stroke-linejoin="round"/>
<path d="M8.66797 20.1433V13.7623C8.66797 13.1982 8.93721 12.6571 9.41647 12.2582C9.89573 11.8594 10.5457 11.6353 11.2235 11.6353H13.7791C14.4569 11.6353 15.1069 11.8594 15.5861 12.2582C16.0654 12.6571 16.3346 13.1982 16.3346 13.7623V20.1433" stroke="#6F6F6F" stroke-width="1.6" stroke-linecap="round" stroke-linejoin="round"/>
</svg>
