<svg width="24" height="25" viewBox="0 0 24 25" fill="none" xmlns="http://www.w3.org/2000/svg">
<path d="M9.64867 6.07775e-08C11.4827 -0.000209981 13.2788 0.543998 14.8266 1.56887C16.3744 2.59374 17.6097 4.05684 18.3879 5.78676C19.1661 7.51667 19.4549 9.44177 19.2205 11.3365C18.9862 13.2313 18.2383 15.0172 17.0645 16.4852L23.72 23.4179C23.8355 23.5296 23.9199 23.6717 23.9644 23.8292C24.0089 23.9867 24.0117 24.1537 23.9727 24.3128C23.9337 24.4718 23.8542 24.6169 23.7426 24.7328C23.631 24.8487 23.4915 24.9312 23.3387 24.9714C23.1862 25.0121 23.026 25.0093 22.8749 24.9632C22.7238 24.9171 22.5875 24.8295 22.4802 24.7095L15.8246 17.7767C14.6337 18.8096 13.2214 19.5286 11.7073 19.8727C10.1933 20.2169 8.62185 20.1762 7.12607 19.754C5.63029 19.3318 4.25412 18.5405 3.11399 17.4472C1.97385 16.3538 1.10328 14.9905 0.575918 13.4725C0.0485561 11.9546 -0.120085 10.3267 0.0842605 8.72649C0.288606 7.1263 0.859926 5.60092 1.74989 4.27936C2.63986 2.95781 3.8223 1.87897 5.19718 1.13409C6.57206 0.389211 8.09894 0.000213188 9.64867 6.07775e-08ZM1.75326 10.0519C1.75326 11.132 1.95748 12.2014 2.35426 13.1992C2.75105 14.1971 3.33262 15.1037 4.06577 15.8674C4.79893 16.6311 5.66931 17.2369 6.62723 17.6502C7.58514 18.0635 8.61183 18.2762 9.64867 18.2762C10.6855 18.2762 11.7122 18.0635 12.6701 17.6502C13.628 17.2369 14.4984 16.6311 15.2316 15.8674C15.9647 15.1037 16.5463 14.1971 16.9431 13.1992C17.3399 12.2014 17.5441 11.132 17.5441 10.0519C17.5441 7.87071 16.7122 5.77882 15.2316 4.23647C13.7509 2.69411 11.7427 1.82762 9.64867 1.82762C7.55468 1.82762 5.54645 2.69411 4.06577 4.23647C2.5851 5.77882 1.75326 7.87071 1.75326 10.0519Z" fill="black"/>
</svg>
